<svg width="23" height="23" viewBox="0 0 23 23" fill="none" xmlns="http://www.w3.org/2000/svg">
<g clip-path="url(#clip0_1405_2698)">
<mask id="mask0_1405_2698" style="mask-type:luminance" maskUnits="userSpaceOnUse" x="-11" y="-10" width="43" height="44">
<path d="M31.9934 7.47889L6.17188 -9.6748L-10.9818 16.1467L14.8397 33.3004L31.9934 7.47889Z" fill="white"/>
</mask>
<g mask="url(#mask0_1405_2698)">
<mask id="mask1_1405_2698" style="mask-type:luminance" maskUnits="userSpaceOnUse" x="-11" y="-10" width="43" height="44">
<path d="M31.9934 7.47889L6.17188 -9.6748L-10.9818 16.1467L14.8397 33.3004L31.9934 7.47889Z" fill="white"/>
</mask>
<g mask="url(#mask1_1405_2698)">
<mask id="mask2_1405_2698" style="mask-type:luminance" maskUnits="userSpaceOnUse" x="-11" y="-10" width="43" height="44">
<path d="M31.9934 7.47889L6.17188 -9.6748L-10.9818 16.1467L14.8397 33.3004L31.9934 7.47889Z" fill="white"/>
</mask>
<g mask="url(#mask2_1405_2698)">
<mask id="mask3_1405_2698" style="mask-type:luminance" maskUnits="userSpaceOnUse" x="-6" y="-5" width="32" height="33">
<path d="M25.9533 3.79107L2.7374 -4.02051L-5.07422 19.1954L18.1417 27.007L25.9533 3.79107Z" fill="white"/>
</mask>
<g mask="url(#mask3_1405_2698)">
<path d="M8.13535 14.5773L5.81375 11.4233C5.30115 10.6833 4.28575 10.4988 3.54575 11.0115C2.80575 11.5241 2.62135 12.5394 3.13395 13.2794C3.13395 13.2794 3.75135 14.3257 3.95515 14.8776C4.75045 17.0297 6.83805 22.1524 11.9863 21.5873C13.7393 21.3948 15.3086 20.8593 16.3561 19.5926C17.4039 18.3261 17.99 16.6596 17.823 14.9049L17.3105 9.95537L17.282 9.67677L16.9572 6.26157C16.8863 5.51547 16.2238 4.96807 15.4776 5.03897C14.7315 5.10997 14.1841 5.77237 14.2551 6.51857L14.6552 11.2894L13.9723 4.10717C13.9055 3.40277 13.28 2.88617 12.5756 2.95317L12.4243 2.96767C11.7199 3.03457 11.2033 3.66007 11.2701 4.36447L11.8986 10.9256L11.1193 2.73317C11.0524 2.02877 10.4269 1.51217 9.72255 1.57907L9.57125 1.59357C8.86685 1.66047 8.35025 2.28597 8.41715 2.99047L8.56055 4.49717L9.18704 10.8707L8.62425 4.94997C8.55725 4.24547 7.93185 3.72897 7.22734 3.79587L7.07595 3.81037C6.37155 3.87727 5.85505 4.50287 5.92195 5.20717L6.61835 12.5283L8.13535 14.5773Z" fill="#FDE3C7"/>
<path d="M9.11572 21.7854C7.94672 21.392 6.89392 20.6517 5.96762 19.5682C4.72042 18.1096 3.99252 16.3854 3.49752 15.0462C3.34552 14.6349 2.89452 13.8343 2.72202 13.5409C2.40802 13.0789 2.29022 12.5226 2.39012 11.9721C2.49122 11.4154 2.80312 10.931 3.26842 10.6092C4.12072 10.0186 5.25852 10.1417 5.96852 10.8485L5.43641 5.2532C5.34411 4.2815 6.05932 3.4162 7.03082 3.3237L7.18242 3.30921C7.45302 3.28341 7.72031 3.3179 7.96771 3.4114L7.93201 3.03601C7.83981 2.06431 8.55472 1.199 9.52622 1.1064L9.67772 1.09201C10.6492 0.999705 11.5148 1.7147 11.6071 2.68611L11.6122 2.7398C11.8372 2.5991 12.0975 2.507 12.3793 2.4802L12.5309 2.46581C13.5023 2.37351 14.3679 3.08841 14.4602 4.05991L14.5388 4.8848C14.7941 4.7029 15.0989 4.5833 15.4329 4.5517C15.9238 4.5049 16.4035 4.65241 16.7836 4.96631C17.1636 5.28021 17.3986 5.7235 17.4452 6.2143L17.7981 9.90471L18.3104 14.8532C18.4836 16.6726 17.9237 18.4646 16.7343 19.9025C15.7218 21.1264 14.1865 21.8359 12.0412 22.0714C10.9988 22.1866 10.0224 22.0904 9.11572 21.7854ZM4.83592 11.2705C4.50522 11.1592 4.13062 11.2006 3.82452 11.4126C3.57392 11.5862 3.40602 11.8468 3.35162 12.1467C3.29722 12.4466 3.36282 12.7497 3.53642 13.0004C3.54312 13.0099 3.54962 13.0202 3.55552 13.0303C3.58162 13.0746 4.19782 14.1213 4.41432 14.7075C5.04852 16.4234 6.97762 21.6448 11.9337 21.1007C13.8141 20.8944 15.1379 20.299 15.9805 19.2803C17.0035 18.0437 17.4854 16.5059 17.3375 14.9507L16.797 9.7262L16.4717 6.3076C16.4498 6.0768 16.3393 5.86811 16.1604 5.72041C15.9816 5.57271 15.7558 5.50341 15.5248 5.52531C15.0481 5.57061 14.6971 5.99521 14.7425 6.47231L15.1434 11.2483C15.1658 11.5162 14.9677 11.7519 14.7 11.776C14.4323 11.7995 14.1953 11.6031 14.1701 11.3354L13.4866 4.15311C13.445 3.71801 13.0574 3.39791 12.6225 3.43911L12.471 3.4535C12.0638 3.4923 11.7569 3.8349 11.7533 4.2356L12.3854 10.8792C12.4107 11.1478 12.214 11.3863 11.9452 11.4119C11.6764 11.4381 11.438 11.2407 11.4124 10.9721L11.412 10.9685L10.7844 4.41031C10.7804 4.36921 10.7781 4.3282 10.7769 4.2877L10.6334 2.77901C10.5919 2.34421 10.2042 2.0237 9.76952 2.0651L9.61792 2.07951C9.18302 2.12091 8.86282 2.5084 8.90402 2.9434L9.06592 4.64C9.08722 4.7257 9.10242 4.81361 9.11102 4.90311L9.67402 10.8235C9.69952 11.0919 9.50302 11.3303 9.23452 11.3562C8.96652 11.382 8.72752 11.1858 8.70122 10.9175L8.10202 4.8223C8.05602 4.6814 7.97092 4.5565 7.85382 4.4597C7.69042 4.3252 7.48482 4.2617 7.27402 4.2819L7.12252 4.2962C6.68752 4.3375 6.36732 4.72511 6.40862 5.16011L7.09112 12.3335L8.52942 14.287C8.68922 14.5043 8.64292 14.8098 8.42612 14.97C8.20902 15.1301 7.90361 15.0845 7.74311 14.8675L6.22612 12.8185C6.20922 12.7957 6.19451 12.7716 6.18201 12.7464L5.42052 11.7122C5.27112 11.4963 5.06382 11.3472 4.83592 11.2705Z" fill="#242226"/>
<path d="M20.7695 4.74902C21.6688 6.30562 22.2049 8.06652 22.3076 9.89112L20.7695 4.74902Z" fill="#FDE3C7"/>
<path d="M22.1526 10.354C21.9689 10.2921 21.832 10.1236 21.8204 9.91815C21.7234 8.19645 21.2139 6.49345 20.3469 4.99295C20.2118 4.75935 20.2918 4.46055 20.5255 4.32545C20.7591 4.19025 21.0579 4.27055 21.1931 4.50405C22.1362 6.13615 22.6905 7.98935 22.796 9.86305C22.8111 10.1324 22.6051 10.3633 22.3356 10.3784C22.2718 10.3823 22.21 10.3733 22.1526 10.354Z" fill="#FDE3C7"/>
<path d="M0.199219 8.80071C0.517319 6.70491 1.37922 4.82641 2.62002 3.28711L0.199219 8.80071Z" fill="#FDE3C7"/>
<path d="M0.04335 9.26284C-0.17725 9.18874 -0.31965 8.96455 -0.28345 8.72655C0.0364497 6.61805 0.90915 4.63095 2.23985 2.97965C2.40935 2.76955 2.71695 2.73705 2.92695 2.90575C3.13695 3.07535 3.17025 3.38285 3.00075 3.59295C1.77835 5.10965 0.97685 6.93554 0.68265 8.87314C0.64215 9.14004 0.39305 9.32355 0.12615 9.28295C0.09775 9.27865 0.06985 9.27184 0.04335 9.26284Z" fill="#FDE3C7"/>
</g>
</g>
</g>
</g>
</g>
<defs>
<clipPath id="clip0_1405_2698">
<rect width="23" height="23" fill="white"/>
</clipPath>
</defs>
</svg>
