<svg width="43" height="44" viewBox="0 0 43 44" fill="none" xmlns="http://www.w3.org/2000/svg">
<g clip-path="url(#clip0_471_7583)">
<g clip-path="url(#clip1_471_7583)">
<g clip-path="url(#clip2_471_7583)">
<mask id="mask0_471_7583" style="mask-type:luminance" maskUnits="userSpaceOnUse" x="5" y="5" width="32" height="33">
<path d="M36.953 13.7915L13.7371 5.97992L5.92548 29.1958L29.1414 37.0074L36.953 13.7915Z" fill="white"/>
</mask>
<g mask="url(#mask0_471_7583)">
<path d="M19.1361 24.5769L16.8145 21.4229C16.3019 20.6829 15.2865 20.4984 14.5465 21.0111C13.8065 21.5237 13.6221 22.539 14.1347 23.279C14.1347 23.279 14.7521 24.3253 14.9559 24.8772C15.7512 27.0293 17.8388 32.152 22.9871 31.5869C24.7401 31.3944 26.3094 30.8589 27.3569 29.5922C28.4047 28.3257 28.9908 26.6592 28.8238 24.9045L28.3113 19.955L28.2828 19.6764L27.958 16.2612C27.8871 15.5151 27.2246 14.9677 26.4784 15.0386C25.7323 15.1096 25.1849 15.772 25.2559 16.5182L25.656 21.289L24.9731 14.1068C24.9063 13.4024 24.2808 12.8858 23.5764 12.9528L23.4251 12.9673C22.7207 13.0342 22.2041 13.6597 22.2709 14.3641L22.8994 20.9252L22.1201 12.7328C22.0532 12.0284 21.4277 11.5118 20.7233 11.5787L20.572 11.5932C19.8676 11.6601 19.351 12.2856 19.4179 12.9901L19.5613 14.4968L20.1878 20.8703L19.625 14.9496C19.558 14.2451 18.9326 13.7286 18.2281 13.7955L18.0767 13.81C17.3723 13.8769 16.8558 14.5025 16.9227 15.2068L17.6191 22.5279L19.1361 24.5769Z" fill="#FDE3C7"/>
<path d="M20.1157 31.7855C18.9467 31.3921 17.8939 30.6518 16.9676 29.5683C15.7204 28.1097 14.9925 26.3855 14.4975 25.0463C14.3455 24.635 13.8945 23.8344 13.722 23.541C13.408 23.079 13.2902 22.5227 13.3901 21.9722C13.4912 21.4155 13.8031 20.9311 14.2684 20.6093C15.1207 20.0187 16.2585 20.1418 16.9685 20.8486L16.4364 15.2533C16.3441 14.2816 17.0593 13.4163 18.0308 13.3238L18.1824 13.3093C18.453 13.2835 18.7203 13.318 18.9677 13.4115L18.932 13.0361C18.8398 12.0644 19.5547 11.1991 20.5262 11.1065L20.6777 11.0921C21.6492 10.9998 22.5148 11.7148 22.6071 12.6862L22.6122 12.7399C22.8372 12.5992 23.0975 12.5071 23.3793 12.4803L23.5309 12.4659C24.5023 12.3736 25.3679 13.0885 25.4602 14.06L25.5388 14.8849C25.7941 14.703 26.0989 14.5834 26.4329 14.5518C26.9238 14.505 27.4035 14.6525 27.7836 14.9664C28.1636 15.2803 28.3986 15.7236 28.4452 16.2144L28.7981 19.9048L29.3104 24.8533C29.4836 26.6727 28.9237 28.4647 27.7343 29.9026C26.7218 31.1265 25.1865 31.836 23.0412 32.0715C21.9988 32.1867 21.0224 32.0905 20.1157 31.7855ZM15.8359 21.2706C15.5052 21.1593 15.1306 21.2007 14.8245 21.4127C14.5739 21.5863 14.406 21.8469 14.3516 22.1468C14.2972 22.4467 14.3628 22.7498 14.5364 23.0005C14.5431 23.01 14.5496 23.0203 14.5555 23.0304C14.5816 23.0747 15.1978 24.1214 15.4143 24.7076C16.0485 26.4235 17.9776 31.6449 22.9337 31.1008C24.8141 30.8945 26.1379 30.2991 26.9805 29.2804C28.0035 28.0438 28.4854 26.506 28.3375 24.9508L27.797 19.7263L27.4717 16.3077C27.4498 16.0769 27.3393 15.8682 27.1604 15.7205C26.9816 15.5728 26.7558 15.5035 26.5248 15.5254C26.0481 15.5707 25.6971 15.9953 25.7425 16.4724L26.1434 21.2484C26.1658 21.5163 25.9677 21.752 25.7 21.7761C25.4323 21.7996 25.1953 21.6032 25.1701 21.3355L24.4866 14.1532C24.445 13.7181 24.0574 13.398 23.6225 13.4392L23.471 13.4536C23.0638 13.4924 22.7569 13.835 22.7533 14.2357L23.3854 20.8793C23.4107 21.1479 23.214 21.3864 22.9452 21.412C22.6764 21.4382 22.438 21.2408 22.4124 20.9722L22.412 20.9686L21.7844 14.4104C21.7804 14.3693 21.7781 14.3283 21.7769 14.2878L21.6334 12.7791C21.5919 12.3443 21.2042 12.0238 20.7695 12.0652L20.6179 12.0796C20.183 12.121 19.8628 12.5085 19.904 12.9435L20.0659 14.6401C20.0872 14.7258 20.1024 14.8137 20.111 14.9032L20.674 20.8236C20.6995 21.092 20.503 21.3304 20.2345 21.3563C19.9665 21.3821 19.7275 21.1859 19.7012 20.9176L19.102 14.8224C19.056 14.6815 18.9709 14.5566 18.8538 14.4598C18.6904 14.3253 18.4848 14.2618 18.274 14.282L18.1225 14.2963C17.6875 14.3376 17.3673 14.7252 17.4086 15.1602L18.0911 22.3336L19.5294 24.2871C19.6892 24.5044 19.6429 24.8099 19.4261 24.9701C19.209 25.1302 18.9036 25.0846 18.7431 24.8676L17.2261 22.8186C17.2092 22.7958 17.1945 22.7717 17.182 22.7465L16.4205 21.7123C16.2711 21.4964 16.0638 21.3473 15.8359 21.2706Z" fill="#242226"/>
<path d="M31.7705 14.749C32.6698 16.3056 33.2059 18.0665 33.3086 19.8911L31.7705 14.749Z" fill="#FDE3C7"/>
<path d="M33.1531 20.3543C32.9694 20.2924 32.8325 20.1239 32.8209 19.9184C32.7239 18.1967 32.2144 16.4937 31.3474 14.9932C31.2123 14.7596 31.2923 14.4608 31.526 14.3257C31.7596 14.1905 32.0584 14.2708 32.1936 14.5043C33.1367 16.1364 33.691 17.9896 33.7965 19.8633C33.8116 20.1327 33.6056 20.3636 33.3361 20.3787C33.2723 20.3826 33.2105 20.3736 33.1531 20.3543Z" fill="#FDE3C7"/>
<path d="M11.2009 18.8004C11.519 16.7046 12.3809 14.8261 13.6217 13.2868L11.2009 18.8004Z" fill="#FDE3C7"/>
<path d="M11.0442 19.2627C10.8236 19.1886 10.6812 18.9644 10.7174 18.7264C11.0373 16.6179 11.91 14.6308 13.2407 12.9795C13.4102 12.7694 13.7178 12.7369 13.9278 12.9056C14.1378 13.0752 14.1711 13.3827 14.0016 13.5928C12.7792 15.1095 11.9777 16.9354 11.6835 18.873C11.643 19.1399 11.3939 19.3234 11.127 19.2828C11.0986 19.2785 11.0707 19.2717 11.0442 19.2627Z" fill="#FDE3C7"/>
</g>
</g>
</g>
</g>
<defs>
<clipPath id="clip0_471_7583">
<rect width="31" height="31" fill="white" transform="translate(17.1699 0.325195) rotate(33.5968)"/>
</clipPath>
<clipPath id="clip1_471_7583">
<rect width="31" height="31" fill="white" transform="translate(17.1699 0.325195) rotate(33.5968)"/>
</clipPath>
<clipPath id="clip2_471_7583">
<rect width="31" height="31" fill="white" transform="translate(17.1699 0.325195) rotate(33.5968)"/>
</clipPath>
</defs>
</svg>
