<svg width="150" height="24" viewBox="0 0 150 24" fill="none" xmlns="http://www.w3.org/2000/svg">
<path d="M149.966 0.0341797H146.197V22.9899H149.966V0.0341797Z" fill="white"/>
<path d="M114.299 0.0341797C115.635 1.02778 116.731 2.32975 117.485 3.80302H125.982V22.9899H129.751V3.83729H143.147V0.0341797H114.299Z" fill="white"/>
<path d="M108.098 0.0341797H84.1826V3.80302H108.098C110.702 3.80302 112.792 5.92728 112.792 8.49695C112.792 11.0666 110.667 13.1909 108.098 13.1909H84.1826V22.9899H87.9515V16.994H108.063C112.723 16.994 116.56 13.1909 116.56 8.49695C116.56 3.80302 112.757 0.0341797 108.098 0.0341797Z" fill="white"/>
<path d="M57.5605 16.343C60.6441 15.041 62.7341 11.9574 62.7341 8.53121C62.7341 3.83729 58.931 0.0341797 54.2371 0.0341797H30.3221V0.205491C31.5555 1.16483 32.5834 2.39827 33.3029 3.83729H54.2371C56.841 3.83729 58.931 5.96154 58.931 8.53121C58.931 11.1009 56.8068 13.2251 54.2371 13.2251H33.3029C32.5834 14.6299 31.5898 15.8633 30.3221 16.8227V22.9899H34.0909V16.994H52.8666L58.2801 22.9899H63.5222L57.492 16.3087L57.5605 16.343Z" fill="white"/>
<path d="M23.915 0.0341797H0V3.80302H23.915C26.519 3.80302 28.609 5.92728 28.609 8.49695C28.609 11.0666 26.4847 13.1909 23.915 13.1909H0V22.9899H3.76884V16.994H23.8808C28.5404 16.994 32.3778 13.1909 32.3778 8.49695C32.3778 3.80302 28.5747 0.0341797 23.915 0.0341797Z" fill="white"/>
<path d="M76.4047 19.2896C72.122 19.2896 68.6272 15.7949 68.6272 11.5121C68.6272 7.22933 72.122 3.73458 76.4047 3.73458V0C70.0662 0 64.8926 5.17359 64.8926 11.5121C64.8926 17.8506 70.0662 23.0242 76.4047 23.0242V19.2896Z" fill="white"/>
<path d="M76.4044 14.8352C78.221 14.8352 79.6936 13.3626 79.6936 11.546C79.6936 9.72945 78.221 8.25684 76.4044 8.25684C74.5878 8.25684 73.1152 9.72945 73.1152 11.546C73.1152 13.3626 74.5878 14.8352 76.4044 14.8352Z" fill="white"/>
</svg>
